<svg viewBox="0 0 24 24" class="ae dd gb gc gd ge aw "><path fill="#026DD6" fill-rule="evenodd" d="M16.0584606,18.3744488 C15.9815361,17.9109295 15.5792415,15.6547122 14.5885782,12.8852372 C17.0262545,12.4883885 19.1375213,13.1688518 19.2934494,13.2207067 C18.9576842,15.3626315 17.7528795,17.209301 16.0584606,18.3744488 L16.0584606,18.3744488 L16.0584606,18.3744488 Z M11.8400851,19.6866953 C10.0126075,19.6866953 8.33689992,19.0252807 7.03022224,17.9246869 C7.13001624,18.0072315 7.19966413,18.0590864 7.19966413,18.0590864 C7.19966413,18.0590864 8.64667712,14.8461991 13.1238933,13.2577459 C13.1405256,13.2513963 13.1581975,13.2471633 13.1748298,13.241872 C14.2372201,16.0515609 14.6748584,18.4051385 14.7871266,19.0771356 C13.881704,19.468693 12.8848035,19.6866953 11.8400851,19.6866953 L11.8400851,19.6866953 L11.8400851,19.6866953 Z M4.29004534,11.9994709 C4.29004534,11.9179846 4.29420343,11.8375566 4.29628247,11.7571286 C4.43038066,11.7603034 8.16018138,11.8460227 12.0469497,10.6618261 C12.2631701,11.0925392 12.4700347,11.5317185 12.6592275,11.9687812 C12.5594335,11.9962961 12.460679,12.0269857 12.3619245,12.0608501 C8.28804244,13.4006114 6.22147504,17.1320477 6.22147504,17.1320477 C6.22147504,17.1320477 6.2245936,17.1352225 6.2245936,17.1362808 C5.021868,15.774296 4.29004534,13.9741901 4.29004534,11.9994709 L4.29004534,11.9994709 L4.29004534,11.9994709 Z M8.61861006,5.04985596 C8.71944358,5.18637192 10.11552,7.11346934 11.4221977,9.47762949 C7.79738861,10.4586395 4.65075907,10.4194838 4.45221059,10.416309 C4.9418249,8.03521665 6.51254087,6.06155565 8.61861006,5.04985596 L8.61861006,5.04985596 L8.61861006,5.04985596 Z M10.0313189,4.53765653 C10.0313189,4.5387148 10.0302793,4.53977306 10.0302793,4.53977306 C10.0302793,4.53977306 10.0209237,4.54188959 10.0074099,4.54400611 C10.015726,4.54188959 10.0230027,4.54083132 10.0313189,4.53765653 L10.0313189,4.53765653 L10.0313189,4.53765653 Z M16.825627,6.2329943 C16.8069156,6.26156741 15.7320511,7.92833206 12.881685,9.01516844 C11.5916396,6.60126992 10.1737332,4.68369687 10.0604254,4.53130696 C10.6311224,4.39055794 11.2267678,4.31436298 11.8400851,4.31436298 C13.7507244,4.31436298 15.4960798,5.04033159 16.825627,6.2329943 L16.825627,6.2329943 L16.825627,6.2329943 Z M19.3870063,11.9232759 C19.2778566,11.8989359 16.7227144,11.3391146 14.12911,11.6714093 C14.0750549,11.5401846 14.0220393,11.4079017 13.9659052,11.2756188 C13.8089375,10.8988771 13.6394956,10.5263684 13.4638166,10.1602093 C16.4451624,8.92098301 17.6551646,7.13992592 17.6697179,7.11876066 C18.7279501,8.42783232 19.3693344,10.0998883 19.3870063,11.9232759 L19.3870063,11.9232759 L19.3870063,11.9232759 Z M20.5003331,10.1887824 C20.3839068,9.61097066 20.2092673,9.04056676 19.9836912,8.49661944 C19.7633128,7.96325475 19.4878398,7.4489388 19.1687069,6.96848727 C18.8537321,6.4922688 18.4898998,6.04356517 18.0907238,5.63719207 C17.6905083,5.22976071 17.250791,4.86042683 16.7819671,4.5387148 C16.3100246,4.21276971 15.8048175,3.93444647 15.280899,3.70797813 C14.7465853,3.47939326 14.1873231,3.30160503 13.6197447,3.18413781 C13.0376131,3.06243753 12.4388491,3 11.8400851,3 C11.2402816,3 10.6415176,3.06243753 10.0593859,3.18413781 C9.49180755,3.30160503 8.93254535,3.47939326 8.39823164,3.70797813 C7.87431315,3.93444647 7.36910603,4.21276971 6.89612405,4.5387148 C6.42833968,4.86042683 5.98862237,5.22976071 5.58840685,5.63719207 C5.18923086,6.04356517 4.82643809,6.4922688 4.51042376,6.96848727 C4.19129087,7.4489388 3.91581785,7.96325475 3.69543943,8.49661944 C3.46882389,9.04056676 3.29522391,9.61097066 3.17879758,10.1887824 C3.06029221,10.7803516 3,11.3899112 3,11.9994709 C3,12.611147 3.06029221,13.2207067 3.17879758,13.8133341 C3.29522391,14.3911459 3.46882389,14.9604915 3.69543943,15.5033806 C3.91581785,16.0367453 4.19129087,16.5531777 4.51042376,17.0336293 C4.82643809,17.5098477 5.18923086,17.9564348 5.58840685,18.3649245 C5.98862237,18.7712975 6.42833968,19.1395732 6.89612405,19.4623435 C7.36910603,19.7872303 7.87431315,20.0666118 8.39823164,20.2920219 C8.93254535,20.5227233 9.49180755,20.698395 10.0593859,20.8158622 C10.6415176,20.9386207 11.2402816,21 11.8400851,21 C12.4388491,21 13.0376131,20.9386207 13.6197447,20.8158622 C14.1873231,20.698395 14.7465853,20.5227233 15.280899,20.2920219 C15.8048175,20.0666118 16.3100246,19.7872303 16.7819671,19.4623435 C17.250791,19.1395732 17.6905083,18.7712975 18.0907238,18.3649245 C18.4898998,17.9564348 18.8537321,17.5098477 19.1687069,17.0336293 C19.4878398,16.5531777 19.7633128,16.0367453 19.9836912,15.5033806 C20.2092673,14.9604915 20.3839068,14.3911459 20.5003331,13.8133341 C20.6188385,13.2207067 20.6791307,12.611147 20.6791307,11.9994709 C20.6791307,11.3899112 20.6188385,10.7803516 20.5003331,10.1887824 L20.5003331,10.1887824 L20.5003331,10.1887824 Z"></path></svg>