<svg viewBox="0 0 24 24" class="ae dd gb gc gd ge aw "><path fill="#000000" fill-rule="evenodd" d="M20.4240011,6.75697057 C19.7837813,7.05498022 19.0944711,7.25651193 18.3714114,7.34655801 C19.1098119,6.88346388 19.6763962,6.14915952 19.9433249,5.27442615 C19.2519693,5.70321702 18.488001,6.01516237 17.6718741,6.18239081 C17.0214272,5.45451832 16.0917789,5 15.0629273,5 C13.0901094,5 11.48956,6.67764426 11.48956,8.74656019 C11.48956,9.04028193 11.5202414,9.32542786 11.5816043,9.59985401 C8.6106163,9.44334534 5.97712432,7.95329709 4.21294038,5.68392143 C3.90510307,6.2392056 3.72919603,6.88346388 3.72919603,7.56952926 C3.72919603,8.86876558 4.36021139,10.0157812 5.31951837,10.6879108 C4.7345252,10.6696872 4.18225892,10.4992429 3.69953729,10.2205288 L3.69953729,10.2666238 C3.69953729,12.0825531 4.93190926,13.5972569 6.56825378,13.9402895 C6.26859819,14.0281917 5.95257916,14.0721427 5.62633297,14.0721427 C5.39622202,14.0721427 5.17122464,14.0496312 4.95338628,14.0056802 C5.4084946,15.4935845 6.72779738,16.5773534 8.29255183,16.6062968 C7.0693843,17.6118113 5.52712958,18.2110466 3.85294458,18.2110466 C3.56453886,18.2110466 3.27920128,18.1938949 3,18.1595917 C4.58214061,19.2208491 6.46189139,19.8415238 8.47970874,19.8415238 C15.0557683,19.8415238 18.6506127,14.1332454 18.6506127,9.18178292 C18.6506127,9.01884239 18.6475445,8.85590186 18.6414083,8.69617726 C19.3399228,8.16769252 19.946393,7.50842656 20.4240011,6.75697057"></path></svg>