<svg viewBox="0 0 24 24" class="ae dd gb gc gd ge aw "><path fill="#000000" fill-rule="evenodd" d="M19.6924776,7.70686567 L14.8668209,7.70686567 L14.8668209,6.50820896 L19.6928806,6.50820896 L19.6928806,7.70686567 L19.6924776,7.70686567 L19.6924776,7.70686567 Z M11.6542687,12.6221642 C11.9656418,13.1044478 12.1212388,13.6900299 12.1212388,14.3775224 C12.1212388,15.0884776 11.945806,15.7262687 11.5888955,16.2896418 C11.3618358,16.6624478 11.0799254,16.9773582 10.741194,17.2308806 C10.3597015,17.5240746 9.90804478,17.7251194 9.3888209,17.8325373 C8.8679403,17.9401343 8.30416418,17.9944925 7.69686567,17.9944925 L2.3,17.9944925 L2.3,6.0110597 L8.08731343,6.0110597 C9.54607463,6.03479104 10.5802687,6.45743284 11.1909701,7.28744776 C11.5574179,7.79650746 11.7389851,8.40734328 11.7389851,9.11735821 C11.7389851,9.84998507 11.5552239,10.436194 11.185194,10.8815821 C10.9793582,11.1312985 10.6752836,11.3584478 10.2727463,11.5634776 C10.8824627,11.7866866 11.3450896,12.1381791 11.6542687,12.6221642 Z M5.06367164,10.7355224 L7.59943284,10.7355224 C8.12053731,10.7355224 8.54179104,10.6364776 8.86623881,10.4384776 C9.19046269,10.240791 9.35223881,9.88938806 9.35223881,9.38485075 C9.35223881,8.82743284 9.13802985,8.45744776 8.70858209,8.27937313 C8.33944776,8.15565672 7.86714925,8.0919403 7.2940597,8.0919403 L5.06367164,8.0919403 L5.06367164,10.7355224 Z M9.59640299,14.2063433 C9.59640299,13.5838657 9.34198507,13.1535224 8.8341791,12.9226119 C8.55020896,12.7913731 8.14955224,12.7242985 7.63583582,12.7195075 L5.06367164,12.7195075 L5.06367164,15.9130299 L7.59602985,15.9130299 C8.11628358,15.9130299 8.51895522,15.8449254 8.80955224,15.7028507 C9.33361194,15.4416269 9.59640299,14.9444776 9.59640299,14.2063433 Z M21.4829403,12.2568358 C21.5412388,12.6488955 21.5676119,13.2177313 21.5569104,13.9612388 L15.3071493,13.9612388 C15.3416269,14.8238955 15.6394328,15.4271642 16.2042388,15.7723881 C16.5448507,15.9888806 16.9578209,16.094597 17.441403,16.094597 C17.9513134,16.094597 18.3669254,15.9656866 18.6868507,15.7007015 C18.8611642,15.5602388 19.0149254,15.3619701 19.1478657,15.111806 L21.4386119,15.111806 C21.3786119,15.6213134 21.102791,16.1380746 20.6071194,16.663209 C19.8391642,17.4978806 18.7621194,17.916403 17.3788955,17.916403 C16.236209,17.916403 15.2291493,17.5634328 14.3550299,16.8600448 C13.4838209,16.154194 13.0462687,15.0094478 13.0462687,13.4214627 C13.0462687,11.9323433 13.4390896,10.7925672 14.2273731,9.99922388 C15.0185672,9.20440299 16.0396418,8.80880597 17.2982537,8.80880597 C18.0442687,8.80880597 18.7167612,8.94214925 19.3167164,9.21022388 C19.914791,9.47856716 20.4090746,9.90089552 20.7983582,10.4813284 C21.1506567,10.9924925 21.3772239,11.5835373 21.4829403,12.2568358 Z M19.2281493,12.4804478 C19.1861493,11.8839403 18.9869851,11.4324627 18.6283731,11.1239104 C18.2727164,10.8145075 17.828403,10.6591791 17.2982537,10.6591791 C16.7212687,10.6591791 16.2757463,10.825209 15.9591791,11.1515373 C15.6404627,11.477194 15.4421493,11.9199403 15.3608806,12.4804925 L19.2281493,12.4804925 L19.2281493,12.4804478 Z"></path></svg>