<svg viewBox="0 0 24 24" class="ae gb gc gd ge aw "><path fill="#000000" fill-rule="evenodd" d="M7.53439798,19.9999996 L7.53439798,9.56759745 L4.32438473,9.56759745 L4.32438473,19.9999996 L7.53439798,19.9999996 L7.53439798,19.9999996 Z M12.7713547,20 L9.54495313,20 C9.54495313,20 9.59135892,10.503372 9.54495313,9.50464178 L12.7710411,9.50464178 L12.7478383,10.899932 C13.2109556,10.1736399 14.0450059,9.1065638 15.9451357,9.1065638 C18.2626042,9.1065638 20,10.6278087 20,13.8970679 L20,20 L16.7683223,19.9999999 L16.7683223,14.0561214 C16.7683223,12.6255842 15.9689657,11.8989773 14.6943738,11.8989773 C13.7214195,11.8989773 13.1419741,12.5572385 12.8873692,13.1931378 C12.7942441,13.4199071 12.7713547,13.7380143 12.7713547,14.0561215 L12.7713547,20 Z M5.91549304,7.83098607 C4.85759544,7.83098607 4,6.97339063 4,5.91549304 C4,4.85759544 4.85759544,4 5.91549304,4 C6.97339063,4 7.83098607,4.85759544 7.83098607,5.91549304 C7.83098607,6.97339063 6.97339063,7.83098607 5.91549304,7.83098607 Z"></path></svg>